<?xml version="1.0" encoding="UTF-8" standalone="no"?>
<!-- Created with Inkscape (http://www.inkscape.org/) -->

<svg
   width="297mm"
   height="210mm"
   viewBox="0 0 297 210"
   version="1.1"
   id="svg1"
   xml:space="preserve"
   inkscape:version="1.4.2 (f4327f4, 2025-05-13)"
   sodipodi:docname="outfits.svg"
   xmlns:inkscape="http://www.inkscape.org/namespaces/inkscape"
   xmlns:sodipodi="http://sodipodi.sourceforge.net/DTD/sodipodi-0.dtd"
   xmlns="http://www.w3.org/2000/svg"
   xmlns:svg="http://www.w3.org/2000/svg"><sodipodi:namedview
     id="namedview1"
     pagecolor="#ffffff"
     bordercolor="#000000"
     borderopacity="0.25"
     inkscape:showpageshadow="2"
     inkscape:pageopacity="0.0"
     inkscape:pagecheckerboard="0"
     inkscape:deskcolor="#d1d1d1"
     inkscape:document-units="mm"
     inkscape:zoom="2.0619234"
     inkscape:cx="373.68023"
     inkscape:cy="482.31666"
     inkscape:window-width="3840"
     inkscape:window-height="2054"
     inkscape:window-x="-11"
     inkscape:window-y="-11"
     inkscape:window-maximized="1"
     inkscape:current-layer="layer4" /><defs
     id="defs1"><g
       id="g2471"><g
         id="g3386"><path
           d="m 4.84375,-3.796875 c 0.046875,-0.140625 0.046875,-0.15625 0.046875,-0.234375 0,-0.171875 -0.140625,-0.265625 -0.296875,-0.265625 -0.09375,0 -0.25,0.0625 -0.34375,0.203125 -0.015625,0.0625 -0.109375,0.359375 -0.140625,0.546875 -0.078125,0.25 -0.140625,0.53125 -0.203125,0.796875 l -0.453125,1.796875 c -0.03125,0.140625 -0.46875,0.84375 -1.125,0.84375 -0.5,0 -0.609375,-0.4375 -0.609375,-0.8125 C 1.71875,-1.375 1.890625,-2 2.21875,-2.875 2.375,-3.28125 2.421875,-3.390625 2.421875,-3.59375 c 0,-0.4375 -0.3125,-0.8125 -0.8125,-0.8125 -0.953125,0 -1.3125,1.453125 -1.3125,1.53125 0,0.109375 0.09375,0.109375 0.109375,0.109375 0.109375,0 0.109375,-0.03125 0.15625,-0.1875 0.28125,-0.9375 0.671875,-1.234375 1.015625,-1.234375 0.078125,0 0.25,0 0.25,0.3125 0,0.25 -0.109375,0.515625 -0.171875,0.703125 -0.40625,1.0625 -0.578125,1.625 -0.578125,2.09375 0,0.890625 0.625,1.1875 1.21875,1.1875 0.390625,0 0.71875,-0.171875 1,-0.453125 -0.125,0.515625 -0.25,1.015625 -0.640625,1.546875 -0.265625,0.328125 -0.640625,0.625 -1.09375,0.625 -0.140625,0 -0.59375,-0.03125 -0.765625,-0.421875 0.15625,0 0.296875,0 0.421875,-0.125 C 1.328125,1.203125 1.421875,1.0625 1.421875,0.875 1.421875,0.5625 1.15625,0.53125 1.0625,0.53125 0.828125,0.53125 0.5,0.6875 0.5,1.171875 c 0,0.5 0.4375,0.875 1.0625,0.875 1.015625,0 2.046875,-0.90625 2.328125,-2.03125 z m 0,0"
           id="path4808" /></g><g
         id="g3894"><path
           d="M 3.328125,-3.015625 C 3.390625,-3.265625 3.625,-4.1875 4.3125,-4.1875 c 0.046875,0 0.296875,0 0.5,0.125 C 4.53125,-4 4.34375,-3.765625 4.34375,-3.515625 c 0,0.15625 0.109375,0.34375 0.375,0.34375 0.21875,0 0.53125,-0.171875 0.53125,-0.578125 0,-0.515625 -0.578125,-0.65625 -0.921875,-0.65625 -0.578125,0 -0.921875,0.53125 -1.046875,0.75 -0.25,-0.65625 -0.78125,-0.75 -1.078125,-0.75 -1.03125,0 -1.609375,1.28125 -1.609375,1.53125 0,0.109375 0.109375,0.109375 0.125,0.109375 0.078125,0 0.109375,-0.03125 0.125,-0.109375 0.34375,-1.0625 1,-1.3125 1.34375,-1.3125 0.1875,0 0.53125,0.09375 0.53125,0.671875 0,0.3125 -0.171875,0.96875 -0.53125,2.375 -0.15625,0.609375 -0.515625,1.03125 -0.953125,1.03125 -0.0625,0 -0.28125,0 -0.5,-0.125 0.25,-0.0625 0.46875,-0.265625 0.46875,-0.546875 0,-0.265625 -0.21875,-0.34375 -0.359375,-0.34375 -0.3125,0 -0.546875,0.25 -0.546875,0.578125 0,0.453125 0.484375,0.65625 0.921875,0.65625 0.671875,0 1.03125,-0.703125 1.046875,-0.75 0.125,0.359375 0.484375,0.75 1.078125,0.75 1.03125,0 1.59375,-1.28125 1.59375,-1.53125 0,-0.109375 -0.078125,-0.109375 -0.109375,-0.109375 -0.09375,0 -0.109375,0.046875 -0.140625,0.109375 -0.328125,1.078125 -1,1.3125 -1.3125,1.3125 -0.390625,0 -0.546875,-0.3125 -0.546875,-0.65625 0,-0.21875 0.046875,-0.4375 0.15625,-0.875 z m 0,0"
           id="path5100" /></g><g
         id="g8545"><path
           d="m 9.140625,-5.65625 c 0.25,-0.4375 0.484375,-0.796875 1.125,-0.84375 0.07813,-0.015625 0.1875,-0.015625 0.1875,-0.203125 0,-0.03125 -0.04687,-0.109375 -0.125,-0.109375 -0.234375,0 -0.515625,0.03125 -0.765625,0.03125 -0.34375,0 -0.703125,-0.03125 -1.046875,-0.03125 -0.046875,0 -0.1875,0 -0.1875,0.1875 0,0.109375 0.09375,0.125 0.15625,0.125 0.234375,0.015625 0.59375,0.09375 0.59375,0.390625 0,0.109375 -0.0625,0.1875 -0.140625,0.328125 L 6.25,-1.09375 5.875,-6.03125 c 0,-0.203125 -0.015625,-0.453125 0.703125,-0.46875 0.171875,0 0.265625,0 0.265625,-0.203125 0,-0.09375 -0.109375,-0.109375 -0.140625,-0.109375 -0.40625,0 -0.828125,0.03125 -1.21875,0.03125 -0.234375,0 -0.8125,-0.03125 -1.046875,-0.03125 -0.0625,0 -0.1875,0 -0.1875,0.203125 C 4.25,-6.5 4.34375,-6.5 4.484375,-6.5 4.921875,-6.5 5,-6.4375 5.015625,-6.25 l 0.0625,0.765625 -2.53125,4.390625 -0.375,-5.046875 c 0,-0.125 0,-0.34375 0.765625,-0.359375 0.09375,0 0.203125,0 0.203125,-0.203125 C 3.140625,-6.8125 3.015625,-6.8125 3,-6.8125 c -0.390625,0 -0.8125,0.03125 -1.21875,0.03125 -0.359375,0 -0.71875,-0.03125 -1.046875,-0.03125 -0.0625,0 -0.1875,0 -0.1875,0.1875 0,0.125 0.09375,0.125 0.25,0.125 0.5,0 0.515625,0.09375 0.53125,0.375 l 0.453125,6.078125 c 0,0.1875 0.015625,0.265625 0.15625,0.265625 0.109375,0 0.140625,-0.0625 0.234375,-0.203125 l 2.9375,-5.09375 0.359375,5.03125 C 5.5,0.171875 5.515625,0.21875 5.625,0.21875 c 0.140625,0 0.203125,-0.09375 0.25,-0.1875 z m 0,0"
           id="path6953" /></g><g
         id="g8738"><path
           d="m 2.1875,-4.625 c 0,-0.015625 0.015625,-0.109375 0.015625,-0.109375 0,-0.046875 -0.015625,-0.109375 -0.109375,-0.109375 -0.140625,0 -0.71875,0.0625 -0.890625,0.078125 -0.046875,0 -0.15625,0.015625 -0.15625,0.15625 0,0.09375 0.109375,0.09375 0.1875,0.09375 0.328125,0 0.328125,0.0625 0.328125,0.109375 0,0.046875 -0.015625,0.09375 -0.015625,0.15625 L 0.5625,-0.3125 c -0.046875,0.125 -0.046875,0.140625 -0.046875,0.15625 0,0.109375 0.09375,0.21875 0.25,0.21875 0.1875,0 0.265625,-0.125 0.3125,-0.28125 0.015625,-0.03125 0.3125,-1.265625 0.34375,-1.359375 0.5,0.046875 0.890625,0.21875 0.890625,0.578125 0,0.03125 0,0.0625 -0.015625,0.140625 -0.03125,0.09375 -0.03125,0.140625 -0.03125,0.21875 0,0.484375 0.40625,0.703125 0.75,0.703125 0.671875,0 0.875,-1.046875 0.875,-1.0625 0,-0.09375 -0.078125,-0.09375 -0.109375,-0.09375 -0.09375,0 -0.109375,0.046875 -0.140625,0.171875 C 3.5625,-0.625 3.375,-0.125 3.03125,-0.125 c -0.1875,0 -0.25,-0.171875 -0.25,-0.359375 0,-0.125 0,-0.140625 0.046875,-0.3125 0.015625,-0.03125 0.03125,-0.140625 0.03125,-0.21875 0,-0.625 -0.828125,-0.71875 -1.125,-0.734375 C 1.9375,-1.875 2.1875,-2.109375 2.3125,-2.21875 2.671875,-2.546875 3.015625,-2.875 3.40625,-2.875 c 0.078125,0 0.171875,0.015625 0.234375,0.09375 C 3.34375,-2.734375 3.28125,-2.5 3.28125,-2.390625 c 0,0.140625 0.109375,0.25 0.265625,0.25 0.203125,0 0.40625,-0.15625 0.40625,-0.4375 0,-0.234375 -0.171875,-0.5 -0.53125,-0.5 -0.40625,0 -0.765625,0.296875 -1.125,0.625 C 2,-2.1875 1.78125,-1.96875 1.484375,-1.84375 Z m 0,0"
           id="path3065" /></g><g
         id="g5034"><path
           d="M 1.734375,-0.734375 C 1.671875,-0.5 1.4375,-0.125 1.078125,-0.125 c -0.015625,0 -0.234375,0 -0.375,-0.09375 0.28125,-0.09375 0.3125,-0.34375 0.3125,-0.390625 0,-0.15625 -0.125,-0.25 -0.28125,-0.25 -0.203125,0 -0.40625,0.15625 -0.40625,0.421875 0,0.34375 0.390625,0.5 0.734375,0.5 0.328125,0 0.609375,-0.1875 0.78125,-0.484375 C 2.015625,-0.0625 2.390625,0.0625 2.671875,0.0625 c 0.8125,0 1.234375,-0.859375 1.234375,-1.0625 0,-0.09375 -0.09375,-0.09375 -0.109375,-0.09375 -0.109375,0 -0.109375,0.046875 -0.140625,0.125 -0.140625,0.484375 -0.5625,0.84375 -0.953125,0.84375 -0.28125,0 -0.421875,-0.1875 -0.421875,-0.453125 0,-0.1875 0.171875,-0.8125 0.359375,-1.59375 C 2.78125,-2.703125 3.09375,-2.875 3.328125,-2.875 c 0.015625,0 0.21875,0 0.375,0.09375 -0.21875,0.0625 -0.3125,0.265625 -0.3125,0.390625 0,0.140625 0.125,0.25 0.28125,0.25 0.15625,0 0.390625,-0.125 0.390625,-0.421875 0,-0.390625 -0.453125,-0.515625 -0.71875,-0.515625 -0.359375,0 -0.640625,0.234375 -0.78125,0.5 -0.125,-0.28125 -0.453125,-0.5 -0.84375,-0.5 C 0.9375,-3.078125 0.5,-2.21875 0.5,-2 c 0,0.078125 0.09375,0.078125 0.109375,0.078125 0.09375,0 0.09375,-0.015625 0.140625,-0.109375 C 0.921875,-2.578125 1.359375,-2.875 1.703125,-2.875 1.9375,-2.875 2.125,-2.75 2.125,-2.421875 2.125,-2.28125 2.03125,-1.9375 1.96875,-1.6875 Z m 0,0"
           id="path231" /></g><g
         id="g6868"><path
           d="m 3,-2.625 c -0.171875,0.046875 -0.296875,0.1875 -0.296875,0.328125 0,0.171875 0.140625,0.234375 0.234375,0.234375 0.078125,0 0.34375,-0.046875 0.34375,-0.40625 0,-0.453125 -0.5,-0.609375 -0.9375,-0.609375 -1.078125,0 -1.28125,0.8125 -1.28125,1.015625 0,0.265625 0.15625,0.4375 0.25,0.515625 0.171875,0.140625 0.296875,0.171875 0.78125,0.25 0.15625,0.03125 0.59375,0.109375 0.59375,0.453125 0,0.125 -0.078125,0.390625 -0.359375,0.5625 C 2.046875,-0.125 1.703125,-0.125 1.625,-0.125 1.34375,-0.125 0.953125,-0.1875 0.78125,-0.421875 1.015625,-0.453125 1.171875,-0.625 1.171875,-0.8125 c 0,-0.171875 -0.125,-0.265625 -0.265625,-0.265625 -0.203125,0 -0.40625,0.171875 -0.40625,0.46875 0,0.421875 0.4375,0.671875 1.109375,0.671875 1.296875,0 1.53125,-0.875 1.53125,-1.140625 0,-0.640625 -0.703125,-0.765625 -0.96875,-0.8125 -0.0625,-0.015625 -0.234375,-0.046875 -0.28125,-0.0625 -0.25,-0.046875 -0.375,-0.1875 -0.375,-0.34375 0,-0.15625 0.125,-0.34375 0.28125,-0.453125 0.1875,-0.109375 0.421875,-0.125 0.546875,-0.125 0.140625,0 0.5,0.015625 0.65625,0.25 z m 0,0"
           id="path2910" /></g><g
         id="g5255"><path
           d="m 6.84375,-3.265625 c 0.15625,0 0.34375,0 0.34375,-0.1875 C 7.1875,-3.65625 7,-3.65625 6.859375,-3.65625 h -5.96875 c -0.140625,0 -0.328125,0 -0.328125,0.203125 0,0.1875 0.1875,0.1875 0.328125,0.1875 z m 0.015625,1.9375 c 0.140625,0 0.328125,0 0.328125,-0.203125 0,-0.1875 -0.1875,-0.1875 -0.34375,-0.1875 H 0.890625 c -0.140625,0 -0.328125,0 -0.328125,0.1875 0,0.203125 0.1875,0.203125 0.328125,0.203125 z m 0,0"
           id="path7417" /></g><g
         id="g1952"><path
           d="M 1.765625,-6.921875 0.328125,-6.8125 V -6.5 c 0.703125,0 0.78125,0.0625 0.78125,0.5625 V -0.75 c 0,0.4375 -0.109375,0.4375 -0.78125,0.4375 V 0 C 0.65625,-0.015625 1.1875,-0.03125 1.4375,-0.03125 c 0.25,0 0.734375,0.015625 1.109375,0.03125 v -0.3125 c -0.671875,0 -0.78125,0 -0.78125,-0.4375 z m 0,0"
           id="path3496" /></g><g
         id="g1390"><path
           d="M 1.765625,-4.40625 0.375,-4.296875 v 0.3125 c 0.640625,0 0.734375,0.0625 0.734375,0.546875 V -0.75 c 0,0.4375 -0.109375,0.4375 -0.78125,0.4375 V 0 C 0.640625,-0.015625 1.1875,-0.03125 1.421875,-0.03125 1.78125,-0.03125 2.125,-0.015625 2.46875,0 v -0.3125 c -0.671875,0 -0.703125,-0.046875 -0.703125,-0.4375 z m 0.03125,-1.734375 c 0,-0.3125 -0.234375,-0.53125 -0.515625,-0.53125 -0.3125,0 -0.53125,0.265625 -0.53125,0.53125 0,0.265625 0.21875,0.53125 0.53125,0.53125 0.28125,0 0.515625,-0.21875 0.515625,-0.53125 z m 0,0"
           id="path7157" /></g><g
         id="g6723"><path
           d="M 1.09375,-3.421875 V -0.75 c 0,0.4375 -0.109375,0.4375 -0.78125,0.4375 V 0 c 0.359375,-0.015625 0.859375,-0.03125 1.140625,-0.03125 0.25,0 0.765625,0.015625 1.109375,0.03125 v -0.3125 c -0.671875,0 -0.78125,0 -0.78125,-0.4375 V -2.59375 C 1.78125,-3.625 2.5,-4.1875 3.125,-4.1875 c 0.640625,0 0.75,0.53125 0.75,1.109375 V -0.75 c 0,0.4375 -0.109375,0.4375 -0.78125,0.4375 V 0 c 0.34375,-0.015625 0.859375,-0.03125 1.125,-0.03125 0.25,0 0.78125,0.015625 1.109375,0.03125 v -0.3125 c -0.65625,0 -0.765625,0 -0.765625,-0.4375 v -1.84375 c 0,-1.03125 0.703125,-1.59375 1.34375,-1.59375 0.625,0 0.734375,0.53125 0.734375,1.109375 V -0.75 c 0,0.4375 -0.109375,0.4375 -0.78125,0.4375 V 0 c 0.34375,-0.015625 0.859375,-0.03125 1.125,-0.03125 0.265625,0 0.78125,0.015625 1.125,0.03125 v -0.3125 c -0.515625,0 -0.765625,0 -0.78125,-0.296875 v -1.90625 c 0,-0.859375 0,-1.15625 -0.3125,-1.515625 -0.140625,-0.171875 -0.46875,-0.375 -1.046875,-0.375 -0.828125,0 -1.28125,0.59375 -1.4375,0.984375 C 4.390625,-4.296875 3.65625,-4.40625 3.203125,-4.40625 2.46875,-4.40625 2,-3.984375 1.71875,-3.359375 V -4.40625 L 0.3125,-4.296875 v 0.3125 c 0.703125,0 0.78125,0.0625 0.78125,0.5625 z m 0,0"
           id="path1243" /></g><g
         id="g7550"><path
           d="m 3.78125,-0.546875 v 0.65625 L 5.25,0 v -0.3125 c -0.6875,0 -0.78125,-0.0625 -0.78125,-0.5625 V -6.921875 L 3.046875,-6.8125 V -6.5 c 0.6875,0 0.765625,0.0625 0.765625,0.5625 v 2.15625 c -0.28125,-0.359375 -0.71875,-0.625 -1.25,-0.625 -1.171875,0 -2.21875,0.984375 -2.21875,2.265625 0,1.265625 0.96875,2.25 2.109375,2.25 0.640625,0 1.078125,-0.34375 1.328125,-0.65625 z m 0,-2.671875 v 2.046875 c 0,0.171875 0,0.1875 -0.109375,0.359375 C 3.375,-0.328125 2.9375,-0.109375 2.5,-0.109375 2.046875,-0.109375 1.6875,-0.375 1.453125,-0.75 1.203125,-1.15625 1.171875,-1.71875 1.171875,-2.140625 1.171875,-2.5 1.1875,-3.09375 1.46875,-3.546875 1.6875,-3.859375 2.0625,-4.1875 2.609375,-4.1875 c 0.34375,0 0.765625,0.15625 1.0625,0.59375 0.109375,0.171875 0.109375,0.1875 0.109375,0.375 z m 0,0"
           id="path5542" /></g><g
         id="g2053"><path
           d="m 1.03125,21.703125 c 0.328125,-0.01563 0.5,-0.234375 0.5,-0.484375 0,-0.328125 -0.25,-0.5 -0.484375,-0.5 -0.234375,0 -0.484375,0.15625 -0.484375,0.5 0,0.515625 0.5,0.9375 1.109375,0.9375 1.515625,0 2.078125,-2.34375 2.78125,-5.234375 C 5.21875,13.78125 5.875,10.59375 6.40625,7.390625 6.78125,5.28125 7.140625,3.28125 7.484375,2 7.609375,1.5 7.9375,0.21875 8.328125,0.21875 c 0.3125,0 0.5625,0.1875 0.609375,0.234375 -0.328125,0.015625 -0.5,0.234375 -0.5,0.484375 0,0.328125 0.25,0.484375 0.46875,0.484375 0.25,0 0.5,-0.140625 0.5,-0.5 C 9.40625,0.390625 8.859375,0 8.3125,0 7.5625,0 7,1.09375 6.453125,3.125 6.421875,3.234375 5.0625,8.234375 3.96875,14.75 3.703125,16.28125 3.421875,17.9375 3.09375,19.328125 2.90625,20.0625 2.453125,21.9375 1.640625,21.9375 c -0.359375,0 -0.59375,-0.234375 -0.609375,-0.234375 z m 0,0"
           id="path4980" /></g><g
         id="g9728"><path
           d="m 1.03125,21.703125 c 0.328125,-0.01563 0.5,-0.234375 0.5,-0.484375 0,-0.328125 -0.25,-0.5 -0.484375,-0.5 -0.234375,0 -0.484375,0.15625 -0.484375,0.5 0,0.515625 0.5,0.9375 1.109375,0.9375 1.53125,0 2.109375,-2.421875 2.875,-5.625 0.140625,-0.609375 0.5,-2.140625 0.640625,-2.765625 1.5,0 2.6875,-1.21875 2.6875,-2.6875 0,-0.765625 -0.34375,-1.921875 -1.671875,-2.5 C 6.515625,6.796875 6.8125,4.96875 7.1875,3.234375 7.40625,2.25 7.84375,0.21875 8.328125,0.21875 c 0.3125,0 0.5625,0.1875 0.609375,0.234375 -0.328125,0.015625 -0.5,0.234375 -0.5,0.484375 0,0.328125 0.25,0.484375 0.46875,0.484375 0.25,0 0.5,-0.140625 0.5,-0.5 C 9.40625,0.390625 8.859375,0 8.3125,0 7.53125,0 6.984375,1.171875 6.453125,3.125 c -0.21875,0.8125 -0.5625,2.25 -0.625,2.5 -0.140625,0.609375 -0.5,2.140625 -0.640625,2.765625 -1.5,0 -2.6875,1.203125 -2.6875,2.6875 C 2.5,11.828125 2.84375,13 4.171875,13.5625 3.75,16.09375 3.40625,18.046875 3.09375,19.265625 2.921875,20 2.46875,21.9375 1.640625,21.9375 1.28125,21.9375 1.046875,21.703125 1.03125,21.703125 Z M 4.234375,13.15625 C 3.4375,12.796875 2.90625,12 2.90625,11.078125 c 0,-1.125 0.828125,-2.21875 2.203125,-2.296875 z m 1.90625,-4.171875 c 0.78125,0.359375 1.34375,1.15625 1.34375,2.09375 0,1.125 -0.84375,2.203125 -2.203125,2.296875 z m 0,0"
           id="path6999" /></g><g
         id="g1126"><path
           d="m 4.03125,-1.90625 c -0.375,-0.4375 -0.484375,-0.546875 -0.75,-0.734375 -0.421875,-0.3125 -0.875,-0.4375 -1.25,-0.4375 -0.875,0 -1.5,0.75 -1.5,1.578125 0,0.8125 0.609375,1.5625 1.46875,1.5625 0.96875,0 1.65625,-0.78125 1.90625,-1.15625 0.359375,0.4375 0.484375,0.546875 0.734375,0.734375 0.4375,0.3125 0.875,0.421875 1.265625,0.421875 0.859375,0 1.484375,-0.734375 1.484375,-1.5625 0,-0.828125 -0.59375,-1.578125 -1.46875,-1.578125 -0.96875,0 -1.640625,0.796875 -1.890625,1.171875 z m 0.21875,0.25 c 0.28125,-0.453125 0.890625,-1.15625 1.734375,-1.15625 0.71875,0 1.21875,0.640625 1.21875,1.3125 0,0.65625 -0.546875,1.1875 -1.1875,1.1875 -0.65625,0 -1.09375,-0.53125 -1.765625,-1.34375 z M 3.671875,-1.359375 C 3.40625,-0.90625 2.796875,-0.1875 1.9375,-0.1875 c -0.71875,0 -1.203125,-0.640625 -1.203125,-1.3125 0,-0.671875 0.546875,-1.1875 1.1875,-1.1875 0.640625,0 1.09375,0.53125 1.75,1.328125 z m 0,0"
           id="path4668" /></g><g
         id="g358"><path
           d="m 6.40625,-1.578125 c -0.875,0.640625 -0.984375,1.5625 -0.984375,1.5625 0,0.109375 0.0625,0.109375 0.15625,0.109375 0.125,0 0.15625,0 0.1875,-0.125 0.046875,-0.171875 0.15625,-0.609375 0.515625,-1 0.40625,-0.421875 0.75,-0.53125 1.046875,-0.625 0.03125,-0.015625 0.0625,-0.046875 0.0625,-0.078125 0,-0.078125 -0.03125,-0.09375 -0.125,-0.125 C 6.265625,-2.171875 5.90625,-2.890625 5.75,-3.5 5.734375,-3.578125 5.671875,-3.578125 5.578125,-3.578125 c -0.09375,0 -0.15625,0 -0.15625,0.09375 0,0.015625 0.0625,0.484375 0.40625,0.96875 0.15625,0.234375 0.359375,0.4375 0.578125,0.59375 H 0.8125 c -0.109375,0 -0.28125,0 -0.28125,0.171875 0,0.171875 0.171875,0.171875 0.28125,0.171875 z m 0,0"
           id="path8304" /></g><g
         id="g3456"><path
           d="M 3.59375,-2.21875 C 3.59375,-2.984375 3.5,-3.546875 3.1875,-4.03125 2.96875,-4.34375 2.53125,-4.625 1.984375,-4.625 c -1.625,0 -1.625,1.90625 -1.625,2.40625 0,0.5 0,2.359375 1.625,2.359375 1.609375,0 1.609375,-1.859375 1.609375,-2.359375 z M 1.984375,-0.0625 c -0.328125,0 -0.75,-0.1875 -0.890625,-0.75 C 1,-1.21875 1,-1.796875 1,-2.3125 1,-2.828125 1,-3.359375 1.09375,-3.734375 1.25,-4.28125 1.6875,-4.4375 1.984375,-4.4375 c 0.375,0 0.734375,0.234375 0.859375,0.640625 0.109375,0.375 0.125,0.875 0.125,1.484375 0,0.515625 0,1.03125 -0.09375,1.46875 -0.140625,0.640625 -0.609375,0.78125 -0.890625,0.78125 z m 0,0"
           id="path4160" /></g><g
         id="g1849"><path
           d="m 4.6875,-1.109375 c 0.453125,0.5 0.46875,0.8125 0.484375,1 0.015625,0.0625 0.0625,0.09375 0.109375,0.09375 0.046875,0 0.25,-0.109375 0.25,-0.625 0,-0.203125 0,-0.390625 -0.5,-1 l -0.578125,-0.6875 0.375,-2.59375 c 0.03125,0.03125 0.3125,0.34375 0.34375,0.703125 0,0.046875 0.015625,0.125 0.109375,0.125 0.046875,0 0.25,-0.109375 0.25,-0.625 C 5.53125,-5.0625 5.453125,-5.203125 5,-5.625 4.75,-5.828125 4.296875,-6.625 4.234375,-6.8125 4.203125,-6.859375 4.1875,-6.90625 4.125,-6.90625 c -0.046875,0 -0.25,0.125 -0.25,0.640625 0,0.296875 0.09375,0.515625 0.65625,1.0625 -0.015625,0.28125 -0.03125,0.5625 -0.15625,1.21875 -0.15625,0.890625 -0.171875,0.96875 -0.203125,1.34375 l -2.78125,-3.15625 C 0.953125,-6.3125 0.921875,-6.625 0.90625,-6.8125 0.890625,-6.875 0.84375,-6.90625 0.8125,-6.90625 c -0.0625,0 -0.265625,0.125 -0.265625,0.640625 0,0.1875 0,0.390625 0.5,0.984375 l 0.59375,0.6875 c -0.53125,0.8125 -0.8125,1.53125 -0.8125,2.1875 0,0.328125 0.09375,0.5625 0.34375,1.046875 0.15625,0.296875 0.25,0.546875 0.25,0.75 0,0.109375 0,0.375 -0.703125,0.390625 -0.09375,0 -0.171875,0 -0.171875,0.109375 C 0.546875,0 0.640625,0 0.8125,0 H 1.375 C 1.640625,0 2.390625,-0.015625 2.390625,-0.59375 2.390625,-0.96875 2.15625,-1.25 1.9375,-1.53125 1.53125,-2.015625 1.5,-2.15625 1.5,-2.46875 c 0,-0.375 0.046875,-1.1875 0.359375,-1.875 z m 0,0"
           id="path9741" /></g></g><clipPath
       clipPathUnits="userSpaceOnUse"
       id="clipPath19"><path
         style="fill:#5940cb;fill-opacity:0.552036;stroke:#ff3533;stroke-width:0.728808;stroke-linecap:round;stroke-linejoin:round;stroke-dasharray:none;stroke-dashoffset:1.05827;stroke-opacity:1"
         d="m 219.73318,147.29451 c -12.10281,-1.56355 -24.26407,-4.39318 -34.64259,-8.0605 -2.78987,-0.9858 -3.20397,-1.20356 -5.12185,-2.69315 -8.269,-6.42243 -17.24326,-15.27123 -23.97263,-23.6375 l -1.94807,-2.42192 -0.99275,-3.15903 c -7.65525,-24.359471 -7.91168,-50.189639 -0.70865,-71.385658 l 1.14225,-3.361219 2.16984,-1.126435 c 21.25019,-11.031611 50.62734,-16.396435 78.56972,-14.348296 l 3.3786,0.247642 3.16061,1.323589 c 10.83294,4.53653 20.25695,9.693037 29.64857,16.222705 2.30783,1.604563 2.63589,1.921187 4.05831,3.916865 9.62708,13.507193 17.23483,30.15706 20.77138,45.459089 1.77827,7.694329 2.42515,12.91441 2.56945,20.735098 l 0.11266,6.10746 -2.80477,2.63723 c -16.28915,15.31598 -42.29857,27.71732 -69.30266,33.0436 -3.04797,0.60117 -4.42886,0.7147 -6.08748,0.50043 z"
         id="path20" /></clipPath><mask
       maskUnits="userSpaceOnUse"
       id="mask21"><path
         style="fill:#5940cb;fill-opacity:0.552036;stroke:#ff3533;stroke-width:0.899999;stroke-linecap:round;stroke-linejoin:round;stroke-dasharray:none;stroke-dashoffset:1.05827;stroke-opacity:1"
         d="m 125.775,77.756031 c -9.02525,10.645172 5.78542,-0.578543 5.78542,-0.578543 L 120.221,68.036528 c 0,0 4.04979,-5.785419 -9.25667,1.388499 -13.306466,7.17392 -48.250397,42.464983 1.61992,30.662723 49.87032,-11.802257 72.54915,-19.554718 27.88572,-40.845059 -44.663438,-21.290344 -59.936937,-6.47967 -64.333857,14.579256 -4.39692,21.058926 -22.56314,34.133973 -8.67813,43.969183 13.885,9.83522 17.587669,13.88501 44.894847,14.57926 27.30718,0.69425 84.58281,79.26024 49.5232,-19.20759 C 126.81638,14.694964 119.06392,9.603795 118.60108,9.835212"
         id="path22" /></mask></defs><g
     inkscape:label="Layer 1"
     inkscape:groupmode="layer"
     id="layer1"><g
       id="g46"
       transform="matrix(0.85537379,0,0,0.85537379,30.483105,13.508123)"><path
         style="fill:#e19f9f;fill-opacity:1;stroke:#000000;stroke-width:0.333103;stroke-linecap:square;stroke-linejoin:miter;stroke-dasharray:none;stroke-dashoffset:1.05827;stroke-opacity:1"
         d="m 34.478932,79.119424 c -0.665019,-1.764993 -0.380236,-10.392529 -0.504935,-11.672147 0.501194,1.456006 0.6301,2.249904 1.004183,4.081082 2.03724,0.148736 4.346834,-0.725729 4.495009,-2.143076 -0.476443,-1.894876 -1.059221,-4.459832 -2.043463,-6.592871 -2.50568,-0.908596 -4.778887,-2.647432 -5.492366,-2.912536 -1.029454,1.109011 -2.057346,1.085223 -3.03564,1.085223 -0.978294,0 -2.006186,0.02379 -3.035639,-1.085223 -0.713479,0.265104 -2.986687,2.00394 -5.492367,2.912536 -0.984228,2.133039 -1.567006,4.697995 -2.043449,6.592871 0.148175,1.417347 2.457755,2.291812 4.495009,2.143076 0.374083,-1.831178 0.502989,-2.625076 1.004169,-4.081082 -0.124712,1.279618 0.160084,9.907154 -0.504935,11.672147 -0.665033,1.764991 3.643702,1.69234 5.577212,1.69234 1.933524,0 6.242245,0.07266 5.577212,-1.69234 z"
         id="path35"
         sodipodi:nodetypes="sccccczcccccszs" /><path
         style="fill:#f0ed99;fill-opacity:1;stroke:#000000;stroke-width:0.333103;stroke-linecap:square;stroke-linejoin:miter;stroke-dasharray:none;stroke-dashoffset:1.05827;stroke-opacity:1"
         d="m 107.19187,79.119424 c -0.66502,-1.764993 -0.38024,-10.392529 -0.50494,-11.672147 0.5012,1.456006 0.6301,2.249904 1.00419,4.081082 2.03724,0.148736 4.34683,-0.725729 4.49501,-2.143076 -0.47645,-1.894876 -1.05923,-4.459832 -2.04347,-6.592871 -2.50568,-0.908596 -4.77888,-2.647432 -5.49236,-2.912536 -1.02946,1.109011 -2.05735,1.085223 -3.03564,1.085223 -0.9783,0 -2.006191,0.02379 -3.035641,-1.085223 -0.71348,0.265104 -2.98669,2.00394 -5.49237,2.912536 -0.98423,2.133039 -1.56701,4.697995 -2.04345,6.592871 0.14818,1.417347 2.45776,2.291812 4.49501,2.143076 0.37408,-1.831178 0.50299,-2.625076 1.00417,-4.081082 -0.12471,1.279618 0.16008,9.907154 -0.50494,11.672147 -0.66503,1.764991 3.64371,1.69234 5.577221,1.69234 1.93352,0 6.24224,0.07266 5.57721,-1.69234 z"
         id="path36"
         sodipodi:nodetypes="sccccczcccccszs" /><path
         style="fill:#a1dfa8;fill-opacity:1;stroke:#000000;stroke-width:0.333103;stroke-linecap:square;stroke-linejoin:miter;stroke-dasharray:none;stroke-dashoffset:1.05827;stroke-opacity:1"
         d="m 179.90481,79.119424 c -0.66502,-1.764993 -0.38024,-10.392529 -0.50494,-11.672147 0.5012,1.456006 0.6301,2.249904 1.00419,4.081082 2.03724,0.148736 4.34683,-0.725729 4.49501,-2.143076 -0.47645,-1.894876 -1.05923,-4.459832 -2.04347,-6.592871 -2.50568,-0.908596 -4.77888,-2.647432 -5.49236,-2.912536 -1.02946,1.109011 -2.05735,1.085223 -3.03564,1.085223 -0.9783,0 -2.00619,0.02379 -3.03564,-1.085223 -0.71348,0.265104 -2.98669,2.00394 -5.49237,2.912536 -0.98423,2.133039 -1.56701,4.697995 -2.04345,6.592871 0.14818,1.417347 2.45776,2.291812 4.49501,2.143076 0.37408,-1.831178 0.50299,-2.625076 1.00417,-4.081082 -0.12471,1.279618 0.16008,9.907154 -0.50494,11.672147 -0.66503,1.764991 3.64371,1.69234 5.57722,1.69234 1.93352,0 6.24224,0.07266 5.57721,-1.69234 z"
         id="path37"
         sodipodi:nodetypes="sccccczcccccszs" /><path
         style="fill:#a6daee;fill-opacity:1;stroke:#000000;stroke-width:0.333103;stroke-linecap:square;stroke-linejoin:miter;stroke-dasharray:none;stroke-dashoffset:1.05827;stroke-opacity:1"
         d="m 252.61775,79.119424 c -0.66502,-1.764993 -0.38024,-10.392529 -0.50494,-11.672147 0.5012,1.456006 0.6301,2.249904 1.00419,4.081082 2.03724,0.148736 4.34683,-0.725729 4.49501,-2.143076 -0.47645,-1.894876 -1.05923,-4.459832 -2.04347,-6.592871 -2.50568,-0.908596 -4.77888,-2.647432 -5.49236,-2.912536 -1.02946,1.109011 -2.05735,1.085223 -3.03564,1.085223 -0.9783,0 -2.00619,0.02379 -3.03564,-1.085223 -0.71348,0.265104 -2.98669,2.00394 -5.49237,2.912536 -0.98423,2.133039 -1.56701,4.697995 -2.04345,6.592871 0.14818,1.417347 2.45776,2.291812 4.49501,2.143076 0.37408,-1.831178 0.50299,-2.625076 1.00417,-4.081082 -0.12471,1.279618 0.16008,9.907154 -0.50494,11.672147 -0.66503,1.764991 3.64371,1.69234 5.57722,1.69234 1.93352,0 6.24224,0.07266 5.57721,-1.69234 z"
         id="path38"
         sodipodi:nodetypes="sccccczcccccszs" /></g></g><g
     inkscape:groupmode="layer"
     id="layer3"
     inkscape:label="3branch"><g
       id="g48"
       transform="translate(-1.6332305,1.4517604)"
       style="stroke-width:0.5;stroke-dasharray:none"><path
         style="fill:#a1dfa8;fill-opacity:1;stroke:#000000;stroke-width:0.5;stroke-linecap:square;stroke-linejoin:miter;stroke-dasharray:none;stroke-dashoffset:1.05827;stroke-opacity:1"
         d="M 56.6002,85.505516 V 97.316707"
         id="path44" /><path
         style="fill:#a1dfa8;fill-opacity:1;stroke:#000000;stroke-width:0.5;stroke-linecap:square;stroke-linejoin:miter;stroke-dasharray:none;stroke-dashoffset:1.05827;stroke-opacity:1"
         d="M 56.600199,85.33312 37.18053,97.110827"
         id="path45" /><path
         style="fill:#a1dfa8;fill-opacity:1;stroke:#000000;stroke-width:0.5;stroke-linecap:square;stroke-linejoin:miter;stroke-dasharray:none;stroke-dashoffset:1.05827;stroke-opacity:1"
         d="M 56.523745,85.33312 75.943414,97.110827"
         id="path46" /></g><g
       id="g50"
       transform="translate(60.792466,1.4517604)"
       style="stroke-width:0.5;stroke-dasharray:none"><path
         style="fill:#a1dfa8;fill-opacity:1;stroke:#000000;stroke-width:0.5;stroke-linecap:square;stroke-linejoin:miter;stroke-dasharray:none;stroke-dashoffset:1.05827;stroke-opacity:1"
         d="M 56.6002,85.505516 V 97.316707"
         id="path48" /><path
         style="fill:#a1dfa8;fill-opacity:1;stroke:#000000;stroke-width:0.5;stroke-linecap:square;stroke-linejoin:miter;stroke-dasharray:none;stroke-dashoffset:1.05827;stroke-opacity:1"
         d="M 56.600199,85.33312 37.18053,97.110827"
         id="path49" /><path
         style="fill:#a1dfa8;fill-opacity:1;stroke:#000000;stroke-width:0.5;stroke-linecap:square;stroke-linejoin:miter;stroke-dasharray:none;stroke-dashoffset:1.05827;stroke-opacity:1"
         d="M 56.523745,85.33312 75.943414,97.110827"
         id="path50" /></g><g
       id="g53"
       transform="translate(123.21816,1.4517604)"
       style="stroke-width:0.5;stroke-dasharray:none"><path
         style="fill:#a1dfa8;fill-opacity:1;stroke:#000000;stroke-width:0.5;stroke-linecap:square;stroke-linejoin:miter;stroke-dasharray:none;stroke-dashoffset:1.05827;stroke-opacity:1"
         d="M 56.6002,85.505516 V 97.316707"
         id="path51" /><path
         style="fill:#a1dfa8;fill-opacity:1;stroke:#000000;stroke-width:0.5;stroke-linecap:square;stroke-linejoin:miter;stroke-dasharray:none;stroke-dashoffset:1.05827;stroke-opacity:1"
         d="M 56.600199,85.33312 37.18053,97.110827"
         id="path52" /><path
         style="fill:#a1dfa8;fill-opacity:1;stroke:#000000;stroke-width:0.5;stroke-linecap:square;stroke-linejoin:miter;stroke-dasharray:none;stroke-dashoffset:1.05827;stroke-opacity:1"
         d="M 56.523745,85.33312 75.943414,97.110827"
         id="path53" /></g><g
       id="g56"
       transform="translate(185.64386,1.4517604)"
       style="stroke-width:0.5;stroke-dasharray:none"><path
         style="fill:#a1dfa8;fill-opacity:1;stroke:#000000;stroke-width:0.5;stroke-linecap:square;stroke-linejoin:miter;stroke-dasharray:none;stroke-dashoffset:1.05827;stroke-opacity:1"
         d="M 56.6002,85.505516 V 97.316707"
         id="path54" /><path
         style="fill:#a1dfa8;fill-opacity:1;stroke:#000000;stroke-width:0.5;stroke-linecap:square;stroke-linejoin:miter;stroke-dasharray:none;stroke-dashoffset:1.05827;stroke-opacity:1"
         d="M 56.600199,85.33312 37.18053,97.110827"
         id="path55" /><path
         style="fill:#a1dfa8;fill-opacity:1;stroke:#000000;stroke-width:0.5;stroke-linecap:square;stroke-linejoin:miter;stroke-dasharray:none;stroke-dashoffset:1.05827;stroke-opacity:1"
         d="M 56.523745,85.33312 75.943414,97.110827"
         id="path56" /></g></g><g
     inkscape:groupmode="layer"
     id="layer4"
     inkscape:label="4branch"><g
       id="g47"
       transform="translate(-2.1803955)"
       style="stroke-width:0.5;stroke-dasharray:none"><path
         style="fill:#6b9ad1;fill-opacity:1;stroke:#000000;stroke-width:0.5;stroke-linecap:square;stroke-linejoin:miter;stroke-dasharray:none;stroke-dashoffset:1.05827;stroke-opacity:1"
         d="m 150.43954,46.697176 -29.56797,15.32358"
         id="path39" /><path
         style="fill:#6b9ad1;fill-opacity:1;stroke:#000000;stroke-width:0.5;stroke-linecap:square;stroke-linejoin:miter;stroke-dasharray:none;stroke-dashoffset:1.05827;stroke-opacity:1"
         d="M 150.3109,46.437516 61.148571,62.678979"
         id="path40"
         sodipodi:nodetypes="cc" /><path
         style="fill:#6b9ad1;fill-opacity:1;stroke:#000000;stroke-width:0.5;stroke-linecap:square;stroke-linejoin:miter;stroke-dasharray:none;stroke-dashoffset:1.05827;stroke-opacity:1"
         d="m 150.79291,46.697176 29.56797,15.32358"
         id="path42" /><path
         style="fill:#6b9ad1;fill-opacity:1;stroke:#000000;stroke-width:0.5;stroke-linecap:square;stroke-linejoin:miter;stroke-dasharray:none;stroke-dashoffset:1.05827;stroke-opacity:1"
         d="m 151.04989,46.437516 89.16233,16.241463"
         id="path43"
         sodipodi:nodetypes="cc" /></g></g><g
     inkscape:groupmode="layer"
     id="layer5"
     inkscape:label="stuff"><g
       id="g62"><g
         id="g60"
         transform="translate(2.1172586,-0.06415935)"><path
           style="fill:#9b9b9b;fill-opacity:1;stroke:#000000;stroke-width:0.285;stroke-linecap:square;stroke-linejoin:miter;stroke-dasharray:none;stroke-dashoffset:1.05827;stroke-opacity:1"
           d="m 29.128161,104.08585 c 0.01753,-0.23937 -0.206135,-3.29129 1.947372,-3.29129 2.153519,0 1.929869,3.05192 1.947371,3.29129 0.01753,0.23937 -1.412002,0.4937 -1.947371,0.4937 -0.535356,0 -1.96486,-0.25433 -1.947372,-0.4937 z"
           id="path58"
           sodipodi:nodetypes="czczc" /><path
           style="fill:#e497ee;fill-opacity:1;stroke:#000000;stroke-width:0.285;stroke-linecap:square;stroke-linejoin:miter;stroke-dasharray:none;stroke-dashoffset:1.05827;stroke-opacity:1"
           d="m 50.846101,104.08585 c 0.01753,-0.23937 -0.206135,-3.29129 1.947372,-3.29129 2.153519,0 1.929869,3.05192 1.947371,3.29129 0.01753,0.23937 -1.412002,0.4937 -1.947371,0.4937 -0.535356,0 -1.96486,-0.25433 -1.947372,-0.4937 z"
           id="path59"
           sodipodi:nodetypes="czczc" /><path
           style="fill:#ffac69;fill-opacity:1;stroke:#000000;stroke-width:0.285;stroke-linecap:square;stroke-linejoin:miter;stroke-dasharray:none;stroke-dashoffset:1.05827;stroke-opacity:1"
           d="m 72.564042,104.08585 c 0.01753,-0.23937 -0.206135,-3.29129 1.947372,-3.29129 2.153519,0 1.929869,3.05192 1.947371,3.29129 0.01753,0.23937 -1.412002,0.4937 -1.947371,0.4937 -0.535356,0 -1.96486,-0.25433 -1.947372,-0.4937 z"
           id="path60"
           sodipodi:nodetypes="czczc" /></g><path
         style="fill:#e19f9f;fill-opacity:1;stroke:#000000;stroke-width:0.284928;stroke-linecap:square;stroke-linejoin:miter;stroke-dasharray:none;stroke-dashoffset:1.05827;stroke-opacity:1"
         d="m 35.7987,117.28373 c -0.349919,-0.92862 -0.200072,-5.46783 -0.265686,-6.14108 0.263717,0.76605 0.331545,1.18375 0.528379,2.14718 1.071951,0.0783 2.287209,-0.38182 2.365175,-1.12753 -0.250694,-0.99696 -0.557339,-2.34646 -1.075225,-3.46871 -1.318434,-0.47804 -2.514546,-1.3929 -2.889963,-1.53238 -0.541676,0.58349 -1.082531,0.57097 -1.597287,0.57097 -0.514757,0 -1.055612,0.0126 -1.597287,-0.57097 -0.375417,0.13948 -1.57153,1.05434 -2.889964,1.53238 -0.517879,1.12225 -0.824524,2.47175 -1.075218,3.46871 0.07797,0.74571 1.293217,1.20579 2.365176,1.12753 0.196834,-0.96343 0.264662,-1.38113 0.528371,-2.14718 -0.06562,0.67325 0.08423,5.21246 -0.265685,6.14108 -0.349926,0.92861 1.917236,0.89039 2.934607,0.89039 1.017378,0 3.284532,0.0382 2.934607,-0.89039 z"
         id="path57"
         sodipodi:nodetypes="sccccczcccccszs" /><path
         style="fill:#e19f9f;fill-opacity:1;stroke:#000000;stroke-width:0.284928;stroke-linecap:square;stroke-linejoin:miter;stroke-dasharray:none;stroke-dashoffset:1.05827;stroke-opacity:1"
         d="m 57.644959,117.28373 c -0.349919,-0.92862 -0.200072,-5.46783 -0.265686,-6.14108 0.263717,0.76605 0.331545,1.18375 0.528379,2.14718 1.071951,0.0783 2.287209,-0.38182 2.365175,-1.12753 -0.250694,-0.99696 -0.557339,-2.34646 -1.075225,-3.46871 -1.318434,-0.47804 -2.514546,-1.3929 -2.889963,-1.53238 -0.541676,0.58349 -1.082531,0.57097 -1.597287,0.57097 -0.514757,0 -1.055612,0.0126 -1.597287,-0.57097 -0.375417,0.13948 -1.57153,1.05434 -2.889964,1.53238 -0.517879,1.12225 -0.824524,2.47175 -1.075218,3.46871 0.07797,0.74571 1.293217,1.20579 2.365176,1.12753 0.196834,-0.96343 0.264662,-1.38113 0.528371,-2.14718 -0.06562,0.67325 0.08423,5.21246 -0.265685,6.14108 -0.349926,0.92861 1.917236,0.89039 2.934607,0.89039 1.017378,0 3.284532,0.0382 2.934607,-0.89039 z"
         id="path61"
         sodipodi:nodetypes="sccccczcccccszs" /><path
         style="fill:#e19f9f;fill-opacity:1;stroke:#000000;stroke-width:0.284928;stroke-linecap:square;stroke-linejoin:miter;stroke-dasharray:none;stroke-dashoffset:1.05827;stroke-opacity:1"
         d="m 79.491218,117.28373 c -0.349919,-0.92862 -0.200072,-5.46783 -0.265686,-6.14108 0.263717,0.76605 0.331545,1.18375 0.528379,2.14718 1.071951,0.0783 2.287209,-0.38182 2.365175,-1.12753 -0.250694,-0.99696 -0.557339,-2.34646 -1.075225,-3.46871 -1.318434,-0.47804 -2.514546,-1.3929 -2.889963,-1.53238 -0.541676,0.58349 -1.082531,0.57097 -1.597287,0.57097 -0.514757,0 -1.055612,0.0126 -1.597287,-0.57097 -0.375417,0.13948 -1.57153,1.05434 -2.889964,1.53238 -0.517879,1.12225 -0.824524,2.47175 -1.075218,3.46871 0.07797,0.74571 1.293217,1.20579 2.365176,1.12753 0.196834,-0.96343 0.264662,-1.38113 0.528371,-2.14718 -0.06562,0.67325 0.08423,5.21246 -0.265685,6.14108 -0.349926,0.92861 1.917236,0.89039 2.934607,0.89039 1.017378,0 3.284532,0.0382 2.934607,-0.89039 z"
         id="path62"
         sodipodi:nodetypes="sccccczcccccszs" /></g><g
       id="g68"
       transform="translate(62.49121)"><g
         id="g65"
         transform="translate(2.1172586,-0.06415935)"><path
           style="fill:#9b9b9b;fill-opacity:1;stroke:#000000;stroke-width:0.285;stroke-linecap:square;stroke-linejoin:miter;stroke-dasharray:none;stroke-dashoffset:1.05827;stroke-opacity:1"
           d="m 29.128161,104.08585 c 0.01753,-0.23937 -0.206135,-3.29129 1.947372,-3.29129 2.153519,0 1.929869,3.05192 1.947371,3.29129 0.01753,0.23937 -1.412002,0.4937 -1.947371,0.4937 -0.535356,0 -1.96486,-0.25433 -1.947372,-0.4937 z"
           id="path63"
           sodipodi:nodetypes="czczc" /><path
           style="fill:#e497ee;fill-opacity:1;stroke:#000000;stroke-width:0.285;stroke-linecap:square;stroke-linejoin:miter;stroke-dasharray:none;stroke-dashoffset:1.05827;stroke-opacity:1"
           d="m 50.846101,104.08585 c 0.01753,-0.23937 -0.206135,-3.29129 1.947372,-3.29129 2.153519,0 1.929869,3.05192 1.947371,3.29129 0.01753,0.23937 -1.412002,0.4937 -1.947371,0.4937 -0.535356,0 -1.96486,-0.25433 -1.947372,-0.4937 z"
           id="path64"
           sodipodi:nodetypes="czczc" /><path
           style="fill:#ffac69;fill-opacity:1;stroke:#000000;stroke-width:0.285;stroke-linecap:square;stroke-linejoin:miter;stroke-dasharray:none;stroke-dashoffset:1.05827;stroke-opacity:1"
           d="m 72.564042,104.08585 c 0.01753,-0.23937 -0.206135,-3.29129 1.947372,-3.29129 2.153519,0 1.929869,3.05192 1.947371,3.29129 0.01753,0.23937 -1.412002,0.4937 -1.947371,0.4937 -0.535356,0 -1.96486,-0.25433 -1.947372,-0.4937 z"
           id="path65"
           sodipodi:nodetypes="czczc" /></g><path
         style="fill:#ede193;fill-opacity:1;stroke:#000000;stroke-width:0.284928;stroke-linecap:square;stroke-linejoin:miter;stroke-dasharray:none;stroke-dashoffset:1.05827;stroke-opacity:1"
         d="m 35.7987,117.28373 c -0.349919,-0.92862 -0.200072,-5.46783 -0.265686,-6.14108 0.263717,0.76605 0.331545,1.18375 0.528379,2.14718 1.071951,0.0783 2.287209,-0.38182 2.365175,-1.12753 -0.250694,-0.99696 -0.557339,-2.34646 -1.075225,-3.46871 -1.318434,-0.47804 -2.514546,-1.3929 -2.889963,-1.53238 -0.541676,0.58349 -1.082531,0.57097 -1.597287,0.57097 -0.514757,0 -1.055612,0.0126 -1.597287,-0.57097 -0.375417,0.13948 -1.57153,1.05434 -2.889964,1.53238 -0.517879,1.12225 -0.824524,2.47175 -1.075218,3.46871 0.07797,0.74571 1.293217,1.20579 2.365176,1.12753 0.196834,-0.96343 0.264662,-1.38113 0.528371,-2.14718 -0.06562,0.67325 0.08423,5.21246 -0.265685,6.14108 -0.349926,0.92861 1.917236,0.89039 2.934607,0.89039 1.017378,0 3.284532,0.0382 2.934607,-0.89039 z"
         id="path66"
         sodipodi:nodetypes="sccccczcccccszs" /><path
         style="fill:#ede193;fill-opacity:1;stroke:#000000;stroke-width:0.284928;stroke-linecap:square;stroke-linejoin:miter;stroke-dasharray:none;stroke-dashoffset:1.05827;stroke-opacity:1"
         d="m 57.644959,117.28373 c -0.349919,-0.92862 -0.200072,-5.46783 -0.265686,-6.14108 0.263717,0.76605 0.331545,1.18375 0.528379,2.14718 1.071951,0.0783 2.287209,-0.38182 2.365175,-1.12753 -0.250694,-0.99696 -0.557339,-2.34646 -1.075225,-3.46871 -1.318434,-0.47804 -2.514546,-1.3929 -2.889963,-1.53238 -0.541676,0.58349 -1.082531,0.57097 -1.597287,0.57097 -0.514757,0 -1.055612,0.0126 -1.597287,-0.57097 -0.375417,0.13948 -1.57153,1.05434 -2.889964,1.53238 -0.517879,1.12225 -0.824524,2.47175 -1.075218,3.46871 0.07797,0.74571 1.293217,1.20579 2.365176,1.12753 0.196834,-0.96343 0.264662,-1.38113 0.528371,-2.14718 -0.06562,0.67325 0.08423,5.21246 -0.265685,6.14108 -0.349926,0.92861 1.917236,0.89039 2.934607,0.89039 1.017378,0 3.284532,0.0382 2.934607,-0.89039 z"
         id="path67"
         sodipodi:nodetypes="sccccczcccccszs" /><path
         style="fill:#ede193;fill-opacity:1;stroke:#000000;stroke-width:0.284928;stroke-linecap:square;stroke-linejoin:miter;stroke-dasharray:none;stroke-dashoffset:1.05827;stroke-opacity:1"
         d="m 79.491218,117.28373 c -0.349919,-0.92862 -0.200072,-5.46783 -0.265686,-6.14108 0.263717,0.76605 0.331545,1.18375 0.528379,2.14718 1.071951,0.0783 2.287209,-0.38182 2.365175,-1.12753 -0.250694,-0.99696 -0.557339,-2.34646 -1.075225,-3.46871 -1.318434,-0.47804 -2.514546,-1.3929 -2.889963,-1.53238 -0.541676,0.58349 -1.082531,0.57097 -1.597287,0.57097 -0.514757,0 -1.055612,0.0126 -1.597287,-0.57097 -0.375417,0.13948 -1.57153,1.05434 -2.889964,1.53238 -0.517879,1.12225 -0.824524,2.47175 -1.075218,3.46871 0.07797,0.74571 1.293217,1.20579 2.365176,1.12753 0.196834,-0.96343 0.264662,-1.38113 0.528371,-2.14718 -0.06562,0.67325 0.08423,5.21246 -0.265685,6.14108 -0.349926,0.92861 1.917236,0.89039 2.934607,0.89039 1.017378,0 3.284532,0.0382 2.934607,-0.89039 z"
         id="path68"
         sodipodi:nodetypes="sccccczcccccszs" /></g><g
       id="g74"
       transform="translate(124.98242)"><g
         id="g71"
         transform="translate(2.1172586,-0.06415935)"><path
           style="fill:#9b9b9b;fill-opacity:1;stroke:#000000;stroke-width:0.285;stroke-linecap:square;stroke-linejoin:miter;stroke-dasharray:none;stroke-dashoffset:1.05827;stroke-opacity:1"
           d="m 29.128161,104.08585 c 0.01753,-0.23937 -0.206135,-3.29129 1.947372,-3.29129 2.153519,0 1.929869,3.05192 1.947371,3.29129 0.01753,0.23937 -1.412002,0.4937 -1.947371,0.4937 -0.535356,0 -1.96486,-0.25433 -1.947372,-0.4937 z"
           id="path69"
           sodipodi:nodetypes="czczc" /><path
           style="fill:#e497ee;fill-opacity:1;stroke:#000000;stroke-width:0.285;stroke-linecap:square;stroke-linejoin:miter;stroke-dasharray:none;stroke-dashoffset:1.05827;stroke-opacity:1"
           d="m 50.846101,104.08585 c 0.01753,-0.23937 -0.206135,-3.29129 1.947372,-3.29129 2.153519,0 1.929869,3.05192 1.947371,3.29129 0.01753,0.23937 -1.412002,0.4937 -1.947371,0.4937 -0.535356,0 -1.96486,-0.25433 -1.947372,-0.4937 z"
           id="path70"
           sodipodi:nodetypes="czczc" /><path
           style="fill:#ffac69;fill-opacity:1;stroke:#000000;stroke-width:0.285;stroke-linecap:square;stroke-linejoin:miter;stroke-dasharray:none;stroke-dashoffset:1.05827;stroke-opacity:1"
           d="m 72.564042,104.08585 c 0.01753,-0.23937 -0.206135,-3.29129 1.947372,-3.29129 2.153519,0 1.929869,3.05192 1.947371,3.29129 0.01753,0.23937 -1.412002,0.4937 -1.947371,0.4937 -0.535356,0 -1.96486,-0.25433 -1.947372,-0.4937 z"
           id="path71"
           sodipodi:nodetypes="czczc" /></g><path
         style="fill:#9fe1ab;fill-opacity:1;stroke:#000000;stroke-width:0.284928;stroke-linecap:square;stroke-linejoin:miter;stroke-dasharray:none;stroke-dashoffset:1.05827;stroke-opacity:1"
         d="m 35.7987,117.28373 c -0.349919,-0.92862 -0.200072,-5.46783 -0.265686,-6.14108 0.263717,0.76605 0.331545,1.18375 0.528379,2.14718 1.071951,0.0783 2.287209,-0.38182 2.365175,-1.12753 -0.250694,-0.99696 -0.557339,-2.34646 -1.075225,-3.46871 -1.318434,-0.47804 -2.514546,-1.3929 -2.889963,-1.53238 -0.541676,0.58349 -1.082531,0.57097 -1.597287,0.57097 -0.514757,0 -1.055612,0.0126 -1.597287,-0.57097 -0.375417,0.13948 -1.57153,1.05434 -2.889964,1.53238 -0.517879,1.12225 -0.824524,2.47175 -1.075218,3.46871 0.07797,0.74571 1.293217,1.20579 2.365176,1.12753 0.196834,-0.96343 0.264662,-1.38113 0.528371,-2.14718 -0.06562,0.67325 0.08423,5.21246 -0.265685,6.14108 -0.349926,0.92861 1.917236,0.89039 2.934607,0.89039 1.017378,0 3.284532,0.0382 2.934607,-0.89039 z"
         id="path72"
         sodipodi:nodetypes="sccccczcccccszs" /><path
         style="fill:#9fe1ab;fill-opacity:1;stroke:#000000;stroke-width:0.284928;stroke-linecap:square;stroke-linejoin:miter;stroke-dasharray:none;stroke-dashoffset:1.05827;stroke-opacity:1"
         d="m 57.644959,117.28373 c -0.349919,-0.92862 -0.200072,-5.46783 -0.265686,-6.14108 0.263717,0.76605 0.331545,1.18375 0.528379,2.14718 1.071951,0.0783 2.287209,-0.38182 2.365175,-1.12753 -0.250694,-0.99696 -0.557339,-2.34646 -1.075225,-3.46871 -1.318434,-0.47804 -2.514546,-1.3929 -2.889963,-1.53238 -0.541676,0.58349 -1.082531,0.57097 -1.597287,0.57097 -0.514757,0 -1.055612,0.0126 -1.597287,-0.57097 -0.375417,0.13948 -1.57153,1.05434 -2.889964,1.53238 -0.517879,1.12225 -0.824524,2.47175 -1.075218,3.46871 0.07797,0.74571 1.293217,1.20579 2.365176,1.12753 0.196834,-0.96343 0.264662,-1.38113 0.528371,-2.14718 -0.06562,0.67325 0.08423,5.21246 -0.265685,6.14108 -0.349926,0.92861 1.917236,0.89039 2.934607,0.89039 1.017378,0 3.284532,0.0382 2.934607,-0.89039 z"
         id="path73"
         sodipodi:nodetypes="sccccczcccccszs" /><path
         style="fill:#9fe1ab;fill-opacity:1;stroke:#000000;stroke-width:0.284928;stroke-linecap:square;stroke-linejoin:miter;stroke-dasharray:none;stroke-dashoffset:1.05827;stroke-opacity:1"
         d="m 79.491218,117.28373 c -0.349919,-0.92862 -0.200072,-5.46783 -0.265686,-6.14108 0.263717,0.76605 0.331545,1.18375 0.528379,2.14718 1.071951,0.0783 2.287209,-0.38182 2.365175,-1.12753 -0.250694,-0.99696 -0.557339,-2.34646 -1.075225,-3.46871 -1.318434,-0.47804 -2.514546,-1.3929 -2.889963,-1.53238 -0.541676,0.58349 -1.082531,0.57097 -1.597287,0.57097 -0.514757,0 -1.055612,0.0126 -1.597287,-0.57097 -0.375417,0.13948 -1.57153,1.05434 -2.889964,1.53238 -0.517879,1.12225 -0.824524,2.47175 -1.075218,3.46871 0.07797,0.74571 1.293217,1.20579 2.365176,1.12753 0.196834,-0.96343 0.264662,-1.38113 0.528371,-2.14718 -0.06562,0.67325 0.08423,5.21246 -0.265685,6.14108 -0.349926,0.92861 1.917236,0.89039 2.934607,0.89039 1.017378,0 3.284532,0.0382 2.934607,-0.89039 z"
         id="path74"
         sodipodi:nodetypes="sccccczcccccszs" /></g><g
       id="g80"
       transform="translate(187.47363)"><g
         id="g77"
         transform="translate(2.1172586,-0.06415935)"><path
           style="fill:#9b9b9b;fill-opacity:1;stroke:#000000;stroke-width:0.285;stroke-linecap:square;stroke-linejoin:miter;stroke-dasharray:none;stroke-dashoffset:1.05827;stroke-opacity:1"
           d="m 29.128161,104.08585 c 0.01753,-0.23937 -0.206135,-3.29129 1.947372,-3.29129 2.153519,0 1.929869,3.05192 1.947371,3.29129 0.01753,0.23937 -1.412002,0.4937 -1.947371,0.4937 -0.535356,0 -1.96486,-0.25433 -1.947372,-0.4937 z"
           id="path75"
           sodipodi:nodetypes="czczc" /><path
           style="fill:#e497ee;fill-opacity:1;stroke:#000000;stroke-width:0.285;stroke-linecap:square;stroke-linejoin:miter;stroke-dasharray:none;stroke-dashoffset:1.05827;stroke-opacity:1"
           d="m 50.846101,104.08585 c 0.01753,-0.23937 -0.206135,-3.29129 1.947372,-3.29129 2.153519,0 1.929869,3.05192 1.947371,3.29129 0.01753,0.23937 -1.412002,0.4937 -1.947371,0.4937 -0.535356,0 -1.96486,-0.25433 -1.947372,-0.4937 z"
           id="path76"
           sodipodi:nodetypes="czczc" /><path
           style="fill:#ffac69;fill-opacity:1;stroke:#000000;stroke-width:0.285;stroke-linecap:square;stroke-linejoin:miter;stroke-dasharray:none;stroke-dashoffset:1.05827;stroke-opacity:1"
           d="m 72.564042,104.08585 c 0.01753,-0.23937 -0.206135,-3.29129 1.947372,-3.29129 2.153519,0 1.929869,3.05192 1.947371,3.29129 0.01753,0.23937 -1.412002,0.4937 -1.947371,0.4937 -0.535356,0 -1.96486,-0.25433 -1.947372,-0.4937 z"
           id="path77"
           sodipodi:nodetypes="czczc" /></g><path
         style="fill:#a5cee8;fill-opacity:1;stroke:#000000;stroke-width:0.284928;stroke-linecap:square;stroke-linejoin:miter;stroke-dasharray:none;stroke-dashoffset:1.05827;stroke-opacity:1"
         d="m 35.7987,117.28373 c -0.349919,-0.92862 -0.200072,-5.46783 -0.265686,-6.14108 0.263717,0.76605 0.331545,1.18375 0.528379,2.14718 1.071951,0.0783 2.287209,-0.38182 2.365175,-1.12753 -0.250694,-0.99696 -0.557339,-2.34646 -1.075225,-3.46871 -1.318434,-0.47804 -2.514546,-1.3929 -2.889963,-1.53238 -0.541676,0.58349 -1.082531,0.57097 -1.597287,0.57097 -0.514757,0 -1.055612,0.0126 -1.597287,-0.57097 -0.375417,0.13948 -1.57153,1.05434 -2.889964,1.53238 -0.517879,1.12225 -0.824524,2.47175 -1.075218,3.46871 0.07797,0.74571 1.293217,1.20579 2.365176,1.12753 0.196834,-0.96343 0.264662,-1.38113 0.528371,-2.14718 -0.06562,0.67325 0.08423,5.21246 -0.265685,6.14108 -0.349926,0.92861 1.917236,0.89039 2.934607,0.89039 1.017378,0 3.284532,0.0382 2.934607,-0.89039 z"
         id="path78"
         sodipodi:nodetypes="sccccczcccccszs" /><path
         style="fill:#a5cee8;fill-opacity:1;stroke:#000000;stroke-width:0.284928;stroke-linecap:square;stroke-linejoin:miter;stroke-dasharray:none;stroke-dashoffset:1.05827;stroke-opacity:1"
         d="m 57.644959,117.28373 c -0.349919,-0.92862 -0.200072,-5.46783 -0.265686,-6.14108 0.263717,0.76605 0.331545,1.18375 0.528379,2.14718 1.071951,0.0783 2.287209,-0.38182 2.365175,-1.12753 -0.250694,-0.99696 -0.557339,-2.34646 -1.075225,-3.46871 -1.318434,-0.47804 -2.514546,-1.3929 -2.889963,-1.53238 -0.541676,0.58349 -1.082531,0.57097 -1.597287,0.57097 -0.514757,0 -1.055612,0.0126 -1.597287,-0.57097 -0.375417,0.13948 -1.57153,1.05434 -2.889964,1.53238 -0.517879,1.12225 -0.824524,2.47175 -1.075218,3.46871 0.07797,0.74571 1.293217,1.20579 2.365176,1.12753 0.196834,-0.96343 0.264662,-1.38113 0.528371,-2.14718 -0.06562,0.67325 0.08423,5.21246 -0.265685,6.14108 -0.349926,0.92861 1.917236,0.89039 2.934607,0.89039 1.017378,0 3.284532,0.0382 2.934607,-0.89039 z"
         id="path79"
         sodipodi:nodetypes="sccccczcccccszs" /><path
         style="fill:#a5cee8;fill-opacity:1;stroke:#000000;stroke-width:0.284928;stroke-linecap:square;stroke-linejoin:miter;stroke-dasharray:none;stroke-dashoffset:1.05827;stroke-opacity:1"
         d="m 79.491218,117.28373 c -0.349919,-0.92862 -0.200072,-5.46783 -0.265686,-6.14108 0.263717,0.76605 0.331545,1.18375 0.528379,2.14718 1.071951,0.0783 2.287209,-0.38182 2.365175,-1.12753 -0.250694,-0.99696 -0.557339,-2.34646 -1.075225,-3.46871 -1.318434,-0.47804 -2.514546,-1.3929 -2.889963,-1.53238 -0.541676,0.58349 -1.082531,0.57097 -1.597287,0.57097 -0.514757,0 -1.055612,0.0126 -1.597287,-0.57097 -0.375417,0.13948 -1.57153,1.05434 -2.889964,1.53238 -0.517879,1.12225 -0.824524,2.47175 -1.075218,3.46871 0.07797,0.74571 1.293217,1.20579 2.365176,1.12753 0.196834,-0.96343 0.264662,-1.38113 0.528371,-2.14718 -0.06562,0.67325 0.08423,5.21246 -0.265685,6.14108 -0.349926,0.92861 1.917236,0.89039 2.934607,0.89039 1.017378,0 3.284532,0.0382 2.934607,-0.89039 z"
         id="path80"
         sodipodi:nodetypes="sccccczcccccszs" /></g></g></svg>
